<?xml version="1.0" standalone="no"?><!DOCTYPE svg PUBLIC "-//W3C//DTD SVG 1.1//EN" "http://www.w3.org/Graphics/SVG/1.1/DTD/svg11.dtd"><svg t="1696899171416" class="icon" viewBox="0 0 1024 1024" version="1.1" xmlns="http://www.w3.org/2000/svg" p-id="10286" xmlns:xlink="http://www.w3.org/1999/xlink" width="48" height="48"><path d="M512.6 832.3h-251c-3.6 0-6.5-2.9-6.5-6.5V473.2c0-3.6 2.9-6.5 6.5-6.5h308.6l18.8-18.8 51.8-51.8h185.1c3.6 0 6.5 2.9 6.5 6.5v122.1c0 17.7 14.3 32 32 32s32-14.3 32-32V402.6c0-39-31.6-70.5-70.5-70.5H640.2V128c0-35.4-28.7-64-64-64H128c-35.4 0-64 28.7-64 64v576.2c0 35.4 28.7 64 64 64h63v57.5c0 39 31.6 70.5 70.5 70.5h251c17.7 0 32-14.3 32-32 0.1-17.6-14.2-31.9-31.9-31.9z m-354.1-128c-16.9 0-30.5-13.7-30.5-30.5V158.5c0-16.9 13.7-30.5 30.5-30.5h387.2c16.9 0 30.5 13.7 30.5 30.5v211.6l-32.5 32.5H261.6c-39 0-70.5 31.6-70.5 70.5v231.1h-32.6z" p-id="10287"></path><path d="M224.1 288.1h256.1c17.7 0 32-14.3 32-32s-14.3-32-32-32H224.1c-17.7 0-32 14.3-32 32-0.1 17.7 14.3 32 32 32zM950.6 905.4l-89.8-89.8c-1-1-2-1.9-3.1-2.7 41.3-62.2 34.6-146.9-20.2-201.7-31.3-31.3-72.2-46.9-113.2-46.9s-81.9 15.6-113.2 46.9c-62.5 62.5-62.5 163.9 0 226.4 31.3 31.3 72.2 46.9 113.2 46.9 30.9 0 61.8-8.9 88.5-26.7 0.8 1.1 1.7 2.1 2.7 3.1l89.8 89.8c6.3 6.3 14.4 9.4 22.6 9.4 8.2 0 16.4-3.1 22.6-9.4 12.6-12.6 12.6-32.8 0.1-45.3z m-226.3-85.1c-25.7 0-49.8-10-67.9-28.1-18.1-18.1-28.1-42.3-28.1-67.9s10-49.8 28.1-67.9c18.1-18.1 42.3-28.1 67.9-28.1 25.7 0 49.8 10 67.9 28.1 37.4 37.4 37.4 98.4 0 135.8-18.2 18.1-42.3 28.1-67.9 28.1z" p-id="10288"></path></svg>