<?xml version="1.0" standalone="no"?><!DOCTYPE svg PUBLIC "-//W3C//DTD SVG 1.1//EN"
        "http://www.w3.org/Graphics/SVG/1.1/DTD/svg11.dtd">
<svg t="1696843210275" class="icon" viewBox="0 0 1024 1024" version="1.1" xmlns="http://www.w3.org/2000/svg" p-id="8246"
     xmlns:xlink="http://www.w3.org/1999/xlink" width="48" height="48">
    <path d="M160.1 195.4a4 4 0 0 0-2.9-1.2 3.9 3.9 0 0 0-2.8 1.2l-45.2 45.3a3.9 3.9 0 0 0 0 5.6l178.3 178.4-117.7 117.6c-84.5 84.6-84.6 221.7 0 306.3l5.6 5.6c84.6 84.6 221.7 84.5 306.3 0l117.6-117.7 177.4 177.3a3.9 3.9 0 0 0 5.6 0l45.3-45.2a4.2 4.2 0 0 0 0-5.7z m273.5 605a148.5 148.5 0 1 1-210-210l114.8-114.9 80 80.1-64.4 64.3a4.2 4.2 0 0 0 0 5.7l45.3 45.2a3.9 3.9 0 0 0 2.8 1.2 4 4 0 0 0 2.9-1.2l64.3-64.3 79.2 79.1z m420.6-625l-5.6-5.6c-84.6-84.6-221.7-84.5-306.3 0L424 288.2l50.8 50.9 115.6-115.5a148.5 148.5 0 1 1 210 210L684.9 549.2l50.9 50.8 118.4-118.3c84.5-84.6 84.6-221.7 0-306.3zM565.5 508.7a3.9 3.9 0 0 0 2.8-1.2L670.8 405a4 4 0 0 0 0-5.7L625.6 354a4.3 4.3 0 0 0-2.8-1.1 4.4 4.4 0 0 0-2.9 1.1L517.4 456.6a3.9 3.9 0 0 0 0 5.6l45.3 45.3a3.8 3.8 0 0 0 2.8 1.2z"
          p-id="8247"></path>
</svg>