<?xml version="1.0" standalone="no"?><!DOCTYPE svg PUBLIC "-//W3C//DTD SVG 1.1//EN"
        "http://www.w3.org/Graphics/SVG/1.1/DTD/svg11.dtd">
<svg t="1696838609571" class="icon" viewBox="0 0 1024 1024" version="1.1" xmlns="http://www.w3.org/2000/svg" p-id="6301"
     xmlns:xlink="http://www.w3.org/1999/xlink" width="48" height="48">
    <path d="M665.246208 113.5104a208.7424 208.7424 0 0 1 297.5744 0 213.504 213.504 0 0 1 7.936 291.0208l-7.936 8.448-468.1216 473.9072a287.488 287.488 0 0 1-409.9584 0 294.656 294.656 0 0 1-8.9088-403.7632l8.9088-9.4208 393.216-398.08a51.2 51.2 0 0 1 77.1072 67.072l-4.1984 4.864-393.2672 398.1312a192.2048 192.2048 0 0 0 0 269.2608 185.088 185.088 0 0 0 256.512 7.3728l7.68-7.3728L890.014208 340.992a111.104 111.104 0 0 0 0-155.5456 106.2912 106.2912 0 0 0-145.408-6.0416l-6.5024 6.0416-468.1728 473.9072a29.952 29.952 0 0 0 0 41.7792c9.7792 9.8816 24.7296 11.008 35.6352 3.328l3.8912-3.328 393.2672-398.08a51.2 51.2 0 0 1 77.056 67.072l-4.1984 4.9152L382.315008 773.12a129.9456 129.9456 0 0 1-185.1904 0 132.352 132.352 0 0 1-6.3488-178.8416l6.3488-6.8608 468.1728-473.9584z"
          fill="#FFFFFF"
          p-id="6303"></path>
</svg>