<?xml version="1.0" standalone="no"?><!DOCTYPE svg PUBLIC "-//W3C//DTD SVG 1.1//EN"
        "http://www.w3.org/Graphics/SVG/1.1/DTD/svg11.dtd">
<svg t="1696944465383" class="icon" viewBox="0 0 1024 1024" version="1.1" xmlns="http://www.w3.org/2000/svg" p-id="5937"
     xmlns:xlink="http://www.w3.org/1999/xlink" width="200" height="200">
    <path d="M704 736m-256 0a256 256 0 1 0 512 0 256 256 0 1 0-512 0Z" fill="rgba(30,59,152,1)" p-id="5938"></path>
    <path d="M256 128h64v64H256zM384 128h64v64h-64z" fill="#ffffff" p-id="5939"></path>
    <path d="M704 448c-10.816 0-21.472 0.704-32 1.888V448c0-59.456-40.96-109.12-96-123.456V32a32 32 0 0 0-32-32H160a32 32 0 0 0-32 32v292.544c-55.04 14.304-96 64-96 123.456v448c0 70.592 57.408 128 128 128h384a125.12 125.12 0 0 0 63.04-17.152c30.336 10.88 62.88 17.152 96.96 17.152 158.784 0 288-129.216 288-288s-129.216-288-288-288zM192 64h320v256H192V64zM160 960c-35.296 0-64-28.704-64-64V448c0-35.296 28.704-64 64-64h384c35.296 0 64 28.704 64 64v16.8c-111.68 39.68-192 146.112-192 271.2a287.456 287.456 0 0 0 107.392 224H160z m544 0c-123.52 0-224-100.48-224-224s100.48-224 224-224 224 100.48 224 224-100.48 224-224 224z"
          fill="#ffffff" p-id="5940"></path>
    <path d="M808.512 650.24l-154.144 166.624-54.88-59.328a32 32 0 1 0-46.976 43.456l78.4 84.736a31.968 31.968 0 0 0 46.944 0l177.6-192a32 32 0 0 0-46.944-43.456z"
          fill="#ffffff" p-id="5941"></path>
</svg>